<svg xmlns="http://www.w3.org/2000/svg" width="800" height="360" viewBox="0 0 800 360">
  <style> .box{fill:#ffffff;stroke:#1f2937;stroke-width:1.5} .title{font:14px Inter, Arial; fill:#0f172a} .small{font:12px Inter, Arial; fill:#374151} </style>
  <rect width="800" height="360" rx="8" fill="#f8fafc"/>
  <rect x="40" y="28" width="200" height="80" rx="6" class="box"/>
  <text x="50" y="54" class="title">Clients / SDKs</text>
  <text x="50" y="74" class="small">OpenAI-compatible requests</text>

  <rect x="280" y="20" width="240" height="120" rx="6" class="box"/>
  <text x="300" y="52" class="title">AI-Higress Gateway (FastAPI)</text>
  <text x="300" y="72" class="small">Routing · Failover · Caching · Auth</text>

  <rect x="560" y="28" width="200" height="80" rx="6" class="box"/>
  <text x="570" y="54" class="title">Monitoring / UI</text>
  <text x="570" y="74" class="small">Next.js management console</text>

  <line x1="240" y1="68" x2="280" y2="68" stroke="#111827" stroke-width="1.5" marker-end="url(#arrow)"/>
  <line x1="520" y1="68" x2="560" y2="68" stroke="#111827" stroke-width="1.5" marker-end="url(#arrow)"/>

  <rect x="160" y="160" width="200" height="120" rx="6" class="box"/>
  <text x="180" y="186" class="title">Redis</text>
  <text x="180" y="206" class="small">Model cache · Session context</text>

  <rect x="440" y="160" width="320" height="120" rx="6" class="box"/>
  <text x="460" y="186" class="title">Upstream Model Providers</text>
  <text x="460" y="206" class="small">OpenAI · Anthropic · Google · Custom</text>

  <line x1="400" y1="100" x2="260" y2="160" stroke="#111827" stroke-width="1.2" marker-end="url(#arrow)"/>
  <line x1="520" y1="100" x2="560" y2="160" stroke="#111827" stroke-width="1.2" marker-end="url(#arrow)"/>

  <defs>
    <marker id="arrow" markerWidth="10" markerHeight="10" refX="6" refY="3" orient="auto">
      <path d="M0,0 L0,6 L9,3 z" fill="#111827" />
    </marker>
  </defs>
</svg>